<svg xmlns="http://www.w3.org/2000/svg" width="954" height="952" viewBox="0 0 954 952" version="1.1">
	<path d="M 453 0.598 C 391.443 4.067, 339.839 16.095, 284 39.988 C 182.151 83.568, 96.491 165.654, 48.146 266 C 23.153 317.877, 9.081 368.572, 2.482 430.500 C -4.299 494.140, 4.893 571.708, 26.371 632.092 C 51.261 702.064, 84.066 755.791, 132.491 805.890 C 156.043 830.256, 182.452 852.092, 213 872.457 C 243.546 892.821, 267.712 905.543, 300.082 918.300 C 362.293 942.817, 420.233 953.144, 487.463 951.698 C 533.115 950.717, 567.724 945.539, 609.734 933.405 C 663.014 918.015, 718.400 890.172, 763.500 856.105 C 798.584 829.603, 835.006 793.362, 860.585 759.500 C 917.319 684.393, 951.266 586.084, 953.126 491.500 C 953.256 484.921, 953.411 484.210, 954 487.500 C 954.410 489.788, 954.726 483.581, 954.740 473 C 954.753 462.587, 954.430 455.811, 954 457.500 C 953.425 459.758, 953.207 458.710, 953.118 453.259 C 952.937 442.155, 950.169 417.368, 946.994 398.407 C 936.493 335.712, 914.667 277.518, 881.205 223 C 836.096 149.505, 766.559 86.540, 688.500 48.510 C 633.879 21.898, 584.475 8.143, 523 2.431 C 507.606 1, 465.449 -0.103, 453 0.598 M 440 41.677 C 411.669 44.563, 392.237 47.937, 363.327 54.989 C 323.144 64.791, 275.978 85.692, 237.500 110.748 C 227.324 117.374, 213.130 128.020, 213.046 129.089 C 213.021 129.413, 217.838 133.722, 223.750 138.665 C 265.127 173.258, 305.908 214.707, 340.670 257.500 C 366.003 288.684, 392.679 325.386, 404.995 346 C 419.271 369.894, 438.241 405.955, 441 414.442 L 442.282 418.384 444.708 415.442 C 453.196 405.151, 470.807 380.865, 475.546 372.917 C 482.099 361.926, 504.372 317.085, 512.261 299 C 535.678 245.321, 558.270 167.859, 568.484 106.227 C 572.034 84.805, 576.329 51.996, 575.670 51.337 C 575.233 50.899, 558.473 47.630, 545.500 45.452 C 529.047 42.689, 500.432 41.038, 471.500 41.181 C 456.100 41.258, 441.925 41.481, 440 41.677 M 612.552 65.295 C 612.246 67.608, 611.076 76.475, 609.952 85 C 599.294 165.869, 573.022 261.771, 543.793 326.500 C 537.270 340.944, 517.639 378.539, 509.199 392.750 C 503.376 402.553, 503.215 403, 505.515 403 C 510.542 403, 554.900 399.902, 563.500 398.950 C 601.527 394.742, 646.670 386.801, 683 377.929 C 748.253 361.993, 786.522 348.029, 843.750 319.271 C 862.038 310.081, 877 302.207, 877 301.773 C 877 300.342, 854.140 255.263, 849.908 248.350 C 834.288 222.829, 821.372 205.907, 798.221 180.630 C 766.552 146.051, 735.393 120.623, 697.736 98.628 C 672.317 83.781, 669.008 82.306, 615.804 62.114 C 613.182 61.119, 613.094 61.205, 612.552 65.295 M 175.500 161.169 C 159.205 175.442, 137.537 199.097, 122.553 218.973 C 93.998 256.850, 65.548 317.646, 53.517 366.500 C 44.478 403.205, 41.085 427.646, 40.278 461.861 C 39.746 484.419, 39.792 485.202, 41.613 484.660 C 53.625 481.084, 107.552 470.086, 128 467.042 C 142.628 464.864, 163.017 462.787, 189 460.826 C 211.024 459.164, 277.688 459.128, 294.500 460.769 C 301.650 461.467, 314.700 462.735, 323.500 463.587 C 349.728 466.127, 389.536 473.482, 410.250 479.617 C 412.622 480.319, 412.563 476.539, 409.963 461.380 C 401.820 413.906, 383.907 378.480, 335.187 313.500 C 327.764 303.600, 318.723 291.905, 315.096 287.510 C 286.863 253.310, 244.382 209.247, 210 178.501 C 198.175 167.927, 187.643 158.313, 186.595 157.138 C 185.547 155.962, 184.197 155.009, 183.595 155.019 C 182.993 155.030, 179.350 157.797, 175.500 161.169 M 882.736 342.983 C 831.614 372.820, 742.308 406.558, 675 421.462 C 645.936 427.897, 579.137 438.115, 559.250 439.166 C 556.913 439.290, 555 439.780, 555 440.255 C 555 441.394, 564.849 454.384, 577.933 470.500 C 610.396 510.485, 652.596 551.795, 697.158 587.212 C 741.980 622.835, 779.849 646.230, 836 672.987 L 860.500 684.662 864.864 676.581 C 878.347 651.613, 897.620 597.716, 903.502 568.529 C 910.796 532.338, 913.419 502.825, 912.702 465 C 912.147 435.691, 910.616 419.853, 905.982 395.482 C 901.459 371.696, 892.243 338.953, 890.089 339.018 C 889.765 339.027, 886.456 340.812, 882.736 342.983 M 463.340 451 L 452.180 462.500 451.556 473.500 C 451.213 479.550, 450.683 487.044, 450.379 490.154 L 449.826 495.808 457.663 499.888 C 461.973 502.133, 468.200 506.149, 471.500 508.815 C 476.866 513.148, 477.817 513.569, 480.500 512.798 C 483.410 511.960, 508.280 508.014, 510.703 508.005 C 511.365 508.002, 513.996 503.954, 516.550 499.008 C 519.104 494.062, 523.626 486.382, 526.599 481.941 L 532.004 473.866 529.187 469.683 C 525.647 464.425, 517.697 450.649, 515.477 445.927 L 513.798 442.353 494.149 440.927 L 474.500 439.500 463.340 451 M 0.415 474 C 0.415 484.175, 0.564 488.337, 0.745 483.250 C 0.927 478.162, 0.927 469.837, 0.745 464.750 C 0.564 459.662, 0.415 463.825, 0.415 474 M 219.500 499.631 C 168.439 501.428, 115.769 508.063, 73.500 518.023 C 61.950 520.744, 50.350 523.265, 47.723 523.625 C 45.095 523.985, 42.789 524.554, 42.597 524.890 C 42.092 525.776, 44.465 543.098, 46.449 553 C 51.546 578.448, 62.793 617.342, 71.085 638.196 C 80.465 661.784, 101.775 701.142, 118.141 725.102 C 130.235 742.810, 163.504 780.311, 182.291 797.414 C 190.666 805.038, 205.720 817, 206.939 817 C 207.311 817, 209.582 813.288, 211.986 808.750 C 232.602 769.837, 263.531 720.900, 289.449 686.185 C 314.860 652.150, 334.331 629.804, 364.158 600.447 C 390.025 574.988, 409.801 558.194, 432.056 542.788 C 437.311 539.150, 442.141 535.535, 442.788 534.755 C 443.768 533.575, 441.996 532.556, 432.233 528.688 C 414.424 521.632, 410.142 520.286, 388.500 514.944 C 361.338 508.240, 337.277 504.378, 307.500 501.942 C 283.591 499.986, 241.099 498.870, 219.500 499.631 M 553.229 512.231 C 548.438 523.946, 542.476 548.795, 537.063 579.608 C 525.351 646.289, 523.341 695.289, 529.562 762.500 C 531.550 783.975, 540.845 838.580, 546.925 864.500 C 549.635 876.050, 552.853 889.775, 554.078 895 C 555.302 900.225, 556.349 904.576, 556.404 904.669 C 556.669 905.115, 577.639 900.912, 586.500 898.638 C 617.275 890.737, 635.632 883.773, 667.039 868.085 C 696.070 853.584, 723.468 837.112, 741.855 823.106 C 758.870 810.146, 785.113 785.374, 801.291 767 C 816.527 749.696, 841.684 718.268, 840.851 717.578 C 840.658 717.418, 834.425 714.714, 827 711.568 C 789.387 695.637, 730.010 660.803, 690 631.198 C 652.108 603.160, 602.997 558.313, 567.921 519.717 C 561.815 512.998, 556.496 507.379, 556.101 507.231 C 555.707 507.083, 554.414 509.333, 553.229 512.231 M 483.877 557.250 C 463.735 567.389, 456.207 572.346, 434.968 589.456 C 371.477 640.607, 314.975 707.843, 269.802 786 C 259.734 803.420, 239.525 841.875, 240.139 842.448 C 242.449 844.603, 263.656 856.926, 278.917 864.982 C 327.009 890.367, 381.965 905.936, 441.500 911.041 C 454.299 912.139, 517.283 912.055, 518.396 910.939 C 518.703 910.631, 517.131 903.881, 514.902 895.939 C 502.177 850.610, 496.225 815.099, 490.359 749.500 C 488.311 726.606, 488.042 669.780, 489.880 648.500 C 492.601 616.989, 501.009 556.352, 503.589 549.629 C 503.933 548.733, 503.773 548, 503.234 548 C 502.694 548, 493.984 552.163, 483.877 557.250" stroke="none" fill="black" fill-rule="evenodd"/>
</svg>